<?xml version="1.0" encoding="utf-8"?>
<!-- Generator: Adobe Illustrator 22.0.1, SVG Export Plug-In . SVG Version: 6.00 Build 0)  -->
<svg version="1.1" id="Capa_1" xmlns="http://www.w3.org/2000/svg" xmlns:xlink="http://www.w3.org/1999/xlink" x="0px" y="0px"
	 viewBox="0 0 177.8 177.8" style="enable-background:new 0 0 177.8 177.8;" xml:space="preserve">
<style type="text/css">
	.st0{fill:#FFFFFF;}
</style>
<g>
	<g>
		<polygon class="st0" points="171.2,0 114,0 142.6,49.6 		"/>
		<polygon class="st0" points="99.6,0 42.3,0 71,49.6 		"/>
		<polygon class="st0" points="35.2,4.1 6.5,53.7 63.8,53.7 		"/>
		<polygon class="st0" points="106.8,4.1 78.2,53.7 135.4,53.7 		"/>
		<polygon class="st0" points="135.4,62 78.2,62 106.8,111.6 		"/>
		<polygon class="st0" points="71,66.1 42.3,115.8 99.6,115.8 		"/>
		<polygon class="st0" points="171.2,124 114,124 142.6,173.6 		"/>
		<polygon class="st0" points="99.6,124 42.3,124 71,173.6 		"/>
		<polygon class="st0" points="35.2,128.2 6.5,177.8 63.8,177.8 		"/>
		<polygon class="st0" points="106.8,128.2 78.2,177.8 135.4,177.8 		"/>
	</g>
</g>
</svg>
