<?xml version="1.0" encoding="utf-8"?>
<!-- Generator: Adobe Illustrator 22.0.1, SVG Export Plug-In . SVG Version: 6.00 Build 0)  -->
<svg version="1.1" xmlns="http://www.w3.org/2000/svg" xmlns:xlink="http://www.w3.org/1999/xlink" x="0px" y="0px"
	 viewBox="0 0 96.2 96.2" style="enable-background:new 0 0 96.2 96.2;" xml:space="preserve">
<style type="text/css">
	.st0{fill:#F5F5F5;}
	.st1{fill:#22231E;}
	.st2{fill:#FFFFFF;}
</style>
<g id="BACKGROUND">
	<rect x="303.8" y="-131.9" class="st0" width="500" height="500"/>
</g>
<g id="OBJECTS">
	<text transform="matrix(1 0 0 1 425.4326 164.8567)" class="st1" style="font-family:'Arial-Black'; font-size:12px;">Qupal’r</text>
	
		<text transform="matrix(1 0 0 1 416.5069 175.7403)" class="st1" style="font-family:'Oswald-Light'; font-size:6px; letter-spacing:1;">DESIGN COMPANY</text>
	<g>
		<polygon class="st2" points="55,14.2 55,6.2 48.1,2.2 41.2,6.2 41.2,14.2 48.1,18.2 		"/>
		<polygon class="st2" points="71.6,23.8 71.6,15.8 64.7,11.8 57.8,15.8 57.8,23.8 64.7,27.8 		"/>
		<polygon class="st2" points="87.9,33.2 87.9,25.2 80.9,21.2 74,25.2 74,33.2 80.9,37.2 		"/>
		<polygon class="st2" points="87.9,52.1 87.9,44.1 80.9,40.1 74,44.1 74,52.1 80.9,56.1 		"/>
		<polygon class="st2" points="70,42.1 70,36 64.7,33 59.4,36 59.4,42.1 64.7,45.2 		"/>
		<polygon class="st2" points="70,61.1 70,55 64.7,51.9 59.4,55 59.4,61.1 64.7,64.1 		"/>
		<polygon class="st2" points="34,41.5 34,36.7 29.9,34.3 25.7,36.7 25.7,41.5 29.9,43.9 		"/>
		<polygon class="st2" points="34,60.4 34,55.6 29.9,53.3 25.7,55.6 25.7,60.4 29.9,62.8 		"/>
		<polygon class="st2" points="15.3,50.1 15.3,46.1 11.8,44.1 8.4,46.1 8.4,50.1 11.8,52.1 		"/>
		<polygon class="st2" points="87.9,71.1 87.9,63.1 80.9,59.1 74,63.1 74,71.1 80.9,75.1 		"/>
		<polygon class="st2" points="54,32.4 54,25.9 48.4,22.6 42.7,25.9 42.7,32.4 48.4,35.7 		"/>
		<polygon class="st2" points="54,70.3 54,63.8 48.4,60.5 42.7,63.8 42.7,70.3 48.4,73.6 		"/>
		<polygon class="st2" points="53.1,50.9 53.1,45.4 48.4,42.6 43.6,45.4 43.6,50.9 48.4,53.6 		"/>
		<polygon class="st2" points="71.6,80.4 71.6,72.5 64.7,68.5 57.8,72.5 57.8,80.4 64.7,84.4 		"/>
		<polygon class="st2" points="35.6,22.6 35.6,16 29.9,12.8 24.2,16 24.2,22.6 29.9,25.9 		"/>
		<polygon class="st2" points="14.8,28.1 14.8,24.4 11.6,22.6 8.4,24.4 8.4,28.1 11.6,30 		"/>
		<polygon class="st2" points="55,90 55,82 48.1,78 41.2,82 41.2,90 48.1,94 		"/>
		<polygon class="st2" points="35.6,80.2 35.6,73.6 29.9,70.4 24.2,73.6 24.2,80.2 29.9,83.5 		"/>
		<polygon class="st2" points="17.4,71.7 17.4,66.5 12.9,63.9 8.4,66.5 8.4,71.7 12.9,74.3 		"/>
	</g>
	<g>
		<text transform="matrix(1 0 0 1 606.8271 145.3577)"><tspan x="0" y="0" class="st1" style="font-family:'Oswald-Medium'; font-size:12px;">COMPANY N</tspan><tspan x="63.4" y="0" class="st1" style="font-family:'AdobeMyungjoStd-Medium-KSCpc-EUC-H'; font-size:12px;">ㅍ</tspan><tspan x="75.4" y="0" class="st1" style="font-family:'Oswald-Medium'; font-size:12px;">AME</tspan></text>
		
			<text transform="matrix(1 0 0 1 619.5118 156.2413)" class="st1" style="font-family:'Oswald-Light'; font-size:6px; letter-spacing:1;">YOUR TAGLINE HERE</text>
	</g>
	<g>
		
			<rect x="586.8" y="-31.1" transform="matrix(0.7071 0.7071 -0.7071 0.7071 172.1269 -422.5986)" class="st1" width="18.8" height="55.2"/>
		<polyline class="st1" points="629.7,15.3 661.2,-16.5 647.9,-29.7 629.6,-11.3 		"/>
		<polyline class="st1" points="609.1,4.3 609.1,17 622.3,30.2 622.3,-9 		"/>
		<polyline class="st1" points="668.6,15.3 700,-16.5 686.7,-29.7 668.4,-11.3 		"/>
		<polyline class="st1" points="647.9,4.3 647.9,17 661.2,30.2 661.2,-9 		"/>
	</g>
</g>
<g id="DESIGNED_BY_FREEPIK">
</g>
</svg>
